<?xml version="1.0" encoding="UTF-8" standalone="no"?>
<!-- Created with Inkscape (http://www.inkscape.org/) -->

<svg
   width="210.33138mm"
   height="35.296913mm"
   viewBox="0 0 210.33138 35.296913"
   version="1.1"
   id="svg1"
   xmlns="http://www.w3.org/2000/svg"
   xmlns:svg="http://www.w3.org/2000/svg">
  <defs
     id="defs1" />
  <g
     id="layer1"
     transform="translate(0.33136362,-261.88852)">
    <path
       id="rect1"
       style="fill-opacity:0.997015;fill-rule:evenodd;stroke:none;stroke-width:0.592212;stroke-linejoin:bevel;stroke-miterlimit:4.7"
       d="m -0.2584738,267.49453 c 0.0128925,-0.53879 0.80400993,-2.33081 2.2418529,-3.43561 0.7538356,-0.57922 1.7381923,-1.02128 3.0243761,-1.09045 1.2793624,-0.0688 2.8861067,0.23645 4.7605577,1.12995 1.9870501,0.94717 2.8986981,2.02167 3.0604911,3.13458 0.163021,1.12136 -0.428732,2.18921 -1.145742,3.22107 -0.680862,0.97985 -1.539213,1.9778 -1.28896,2.74944 0.263498,0.81248 1.679279,1.50432 6.29371,2.14522 2.127382,0.18623 5.208189,-0.17138 8.223186,-0.73186 3.017208,-0.56088 5.908695,-1.33552 8.467115,-1.89832 2.552671,-0.56154 4.874143,-0.90455 7.157585,-0.51442 2.264994,0.38697 4.723003,1.53616 5.224476,3.65297 0.436019,1.84051 0.150115,4.30902 0.654285,5.99332 0.480587,1.60552 2.550422,2.74594 9.910385,1.73468 16.880162,-1.44965 24.227093,-1.88534 28.909622,-1.44358 4.682529,0.44176 5.944798,1.69483 5.795911,3.0453 -0.148886,1.35048 -1.774959,2.77552 -2.178591,3.81639 -0.40035,1.03242 0.50878,1.73223 5.165961,1.70097 4.301286,-0.0289 8.434743,-1.09057 15.077013,-2.33842 3.33751,-0.627 7.3237,-1.30991 12.17903,-1.94503 4.87341,-0.63749 10.5789,-1.22292 17.65013,-1.67927 4.3069,0.79833 2.26474,2.78863 0.0315,4.52378 -2.26548,1.7602 -4.74967,3.24723 -0.29127,4.15537 13.02333,0.47899 26.38081,0.81242 39.14565,1.22713 12.43096,0.40386 25.12739,0.93934 32.19021,2.35226 -9.67257,0 -20.58175,0.0292 -40.08233,0.0771 -18.95437,0.0465 -40.75511,0.0946 -66.33838,0.10508 -25.922226,0.0106 -49.337124,-0.0206 -70.523311,-0.0743 C 13.04886,297.05718 -0.33136362,297 -0.33136362,297 Z" />
    <path
       id="path1"
       style="opacity:0.598963;fill-opacity:0.997015;fill-rule:evenodd;stroke:none;stroke-width:0.571773;stroke-linejoin:bevel;stroke-miterlimit:4.7"
       d="m 1.4373603,266.00777 c 1.2338074,-0.52132 2.9776177,-2.09796 5.4238838,-3.16495 2.4391943,-1.0639 5.7314509,-1.58186 10.3874119,0.3134 2.43529,0.99131 3.595241,2.09821 4.013195,3.22473 0.421489,1.13605 0.08197,2.22283 -0.248922,3.27265 -0.320974,1.01836 -0.646773,2.01053 0.164845,2.84575 0.831495,0.85567 2.868999,1.6101 7.796029,2.33409 2.197729,0.21782 4.988838,-0.12524 7.685692,-0.67608 2.697822,-0.55104 5.24963,-1.31979 7.583673,-1.87023 2.328249,-0.54908 4.525254,-0.8738 6.795145,-0.45338 2.252067,0.41713 4.78288,1.60812 5.662244,3.78593 0.764584,1.89355 0.944136,4.43947 1.506827,6.17555 0.536083,1.65399 2.260037,2.83249 8.739803,1.82415 14.824171,-1.41887 21.409388,-1.83747 25.567841,-1.37711 4.151548,0.45958 5.24656,1.72846 5.073804,3.09038 -0.352994,2.78281 -5.912163,5.59734 2.761418,5.52396 3.93248,-0.0333 7.60746,-1.09313 13.66634,-2.34876 6.09325,-1.26275 14.31007,-2.73057 27.81265,-3.65823 4.13629,0.78301 2.26175,2.75029 0.26447,4.47639 -2.02788,1.75255 -4.1795,3.22917 0.17931,4.1226 10.94477,0.39454 26.29037,0.79429 37.23514,1.18884 11.83144,0.41291 23.74276,0.97446 30.49184,2.36255 -9.12758,0 -19.5724,0.0264 -37.73387,0.0713 14.7943,-0.0365 -76.487755,0.14356 -61.69345,0.10702 -24.030423,0.0165 -45.637239,-0.003 -65.20444,-0.0424 -18.46361,-0.0372 -30.795421,-0.082 -30.795421,-0.082 0.960494,-10.24195 -1.594755,-20.2258 -13.1354587,-31.04612 z" />
    <path
       id="path2"
       style="opacity:0.214405;fill-opacity:0.997015;fill-rule:evenodd;stroke:none;stroke-width:0.540304;stroke-linejoin:bevel;stroke-miterlimit:4.7"
       d="m 2.4862282,271.24986 c 2.7002364,-0.41196 6.9221734,-1.6816 10.9292028,-2.54883 3.919108,-0.84821 8.260328,-1.30171 11.933179,0.29453 3.903777,1.69661 0.727651,3.57942 -2.474625,5.26694 -1.551759,0.81773 -3.097964,1.60586 -3.117578,2.28175 -0.02018,0.69548 1.508047,1.30018 6.27876,1.89813 2.230097,0.18122 5.66904,-0.0879 9.174594,-0.52067 3.508748,-0.43315 7.041974,-1.03859 10.063868,-1.46956 3.01644,-0.43019 5.60314,-0.6802 7.543321,-0.33548 1.926662,0.34231 3.365748,1.30158 2.364663,3.04743 -0.870421,1.51797 -2.593345,3.57014 -2.870815,4.98829 -0.266986,1.36457 1.372603,2.31703 8.596265,1.51723 16.365311,-1.11716 23.476428,-1.39703 27.71575,-0.99858 4.213789,0.39605 5.039818,1.43379 4.678125,2.54242 -0.36227,1.11039 -1.950524,2.28145 -2.262263,3.1436 -0.309613,0.85627 0.714508,1.43999 5.255582,1.42483 4.200833,-0.014 8.077033,-0.88373 14.526653,-1.87884 6.65501,-1.02681 15.39683,-2.11944 29.55471,-2.87647 4.37634,0.63205 2.50469,2.23124 0.44924,3.63639 -2.08216,1.4234 -4.35919,2.63392 0.12412,3.37589 10.56714,0.31023 27.68766,0.65845 38.25479,0.96868 11.98701,0.33071 23.84388,0.78666 30.79623,1.99246 -9.44113,0 -20.15741,0.028 -39.08823,0.0746 14.36321,-0.0353 -78.727928,0.14147 -64.36471,0.10613 -25.117554,0.0133 -47.763226,-0.0128 -68.260197,-0.0602 -19.350121,-0.0448 -32.2839722,-0.0965 -32.2839722,-0.0965 0.5203498,-8.6117 1.57834,-16.99206 -3.5166626,-25.77417 z" />
  </g>
</svg>
